<mxfile host="www.draw.io" modified="2020-04-04T00:08:45.890Z" agent="5.0 (Macintosh; Intel Mac OS X 10_15_3) AppleWebKit/537.36 (KHTML, like Gecko) Chrome/80.0.3987.149 Safari/537.36" etag="-pUZsHfuZ1Pz293MNapB" version="12.9.5" type="github" pages="2">
  <diagram id="nvIcJrDGoMgyBf4AQdr5" name="3DPointConfiguration">
    <mxGraphModel dx="1765" dy="975" grid="1" gridSize="10" guides="1" tooltips="1" connect="1" arrows="1" fold="1" page="1" pageScale="1" pageWidth="2400" pageHeight="2400" math="0" shadow="0">
      <root>
        <mxCell id="0" />
        <mxCell id="1" parent="0" />
        <mxCell id="vM847BDnY2Y7-K3CfBTw-48" value="" style="verticalLabelPosition=bottom;verticalAlign=top;html=1;shape=mxgraph.basic.orthogonal_triangle;fillColor=#E6E6E6;rotation=45;strokeColor=none;" vertex="1" parent="1">
          <mxGeometry x="1032" y="483.31" width="14.5" height="14" as="geometry" />
        </mxCell>
        <mxCell id="vM847BDnY2Y7-K3CfBTw-47" value="" style="verticalLabelPosition=bottom;verticalAlign=top;html=1;shape=mxgraph.basic.orthogonal_triangle;fillColor=#E6E6E6;strokeColor=none;rotation=90;" vertex="1" parent="1">
          <mxGeometry x="880" y="640" width="20" height="20" as="geometry" />
        </mxCell>
        <mxCell id="vM847BDnY2Y7-K3CfBTw-44" value="" style="rounded=0;whiteSpace=wrap;html=1;fillColor=#E6E6E6;rotation=-45;strokeColor=none;" vertex="1" parent="1">
          <mxGeometry x="847.23" y="565.61" width="219.91" height="14.16" as="geometry" />
        </mxCell>
        <mxCell id="vM847BDnY2Y7-K3CfBTw-40" value="" style="verticalLabelPosition=bottom;verticalAlign=top;html=1;shape=mxgraph.basic.orthogonal_triangle;fillColor=#E6E6E6;rotation=-90;strokeColor=none;fontStyle=1" vertex="1" parent="1">
          <mxGeometry x="560.5" y="480.5" width="159.5" height="159.5" as="geometry" />
        </mxCell>
        <mxCell id="vM847BDnY2Y7-K3CfBTw-37" value="" style="rounded=0;whiteSpace=wrap;html=1;fillColor=#E6E6E6;strokeColor=none;fontStyle=1" vertex="1" parent="1">
          <mxGeometry x="720" y="480" width="160" height="160" as="geometry" />
        </mxCell>
        <mxCell id="vM847BDnY2Y7-K3CfBTw-39" value="" style="verticalLabelPosition=bottom;verticalAlign=top;html=1;shape=mxgraph.basic.orthogonal_triangle;fillColor=#E6E6E6;rotation=90;strokeColor=none;fontStyle=1" vertex="1" parent="1">
          <mxGeometry x="880" y="480.5" width="159.5" height="159.5" as="geometry" />
        </mxCell>
        <mxCell id="vM847BDnY2Y7-K3CfBTw-11" value="" style="endArrow=none;html=1;" edge="1" parent="1">
          <mxGeometry width="50" height="50" relative="1" as="geometry">
            <mxPoint x="880" y="640" as="sourcePoint" />
            <mxPoint x="560" y="640" as="targetPoint" />
          </mxGeometry>
        </mxCell>
        <mxCell id="vM847BDnY2Y7-K3CfBTw-12" value="" style="endArrow=none;html=1;" edge="1" parent="1">
          <mxGeometry width="50" height="50" relative="1" as="geometry">
            <mxPoint x="1040" y="480" as="sourcePoint" />
            <mxPoint x="720" y="480" as="targetPoint" />
          </mxGeometry>
        </mxCell>
        <mxCell id="vM847BDnY2Y7-K3CfBTw-13" value="" style="endArrow=none;html=1;" edge="1" parent="1">
          <mxGeometry width="50" height="50" relative="1" as="geometry">
            <mxPoint x="560" y="640" as="sourcePoint" />
            <mxPoint x="720" y="480" as="targetPoint" />
          </mxGeometry>
        </mxCell>
        <mxCell id="vM847BDnY2Y7-K3CfBTw-14" value="" style="endArrow=none;html=1;" edge="1" parent="1">
          <mxGeometry width="50" height="50" relative="1" as="geometry">
            <mxPoint x="880" y="640" as="sourcePoint" />
            <mxPoint x="1040" y="480" as="targetPoint" />
          </mxGeometry>
        </mxCell>
        <mxCell id="vM847BDnY2Y7-K3CfBTw-15" value="" style="endArrow=none;html=1;" edge="1" parent="1">
          <mxGeometry width="50" height="50" relative="1" as="geometry">
            <mxPoint x="560" y="640" as="sourcePoint" />
            <mxPoint x="560" y="320" as="targetPoint" />
          </mxGeometry>
        </mxCell>
        <mxCell id="vM847BDnY2Y7-K3CfBTw-16" value="" style="endArrow=none;html=1;" edge="1" parent="1">
          <mxGeometry width="50" height="50" relative="1" as="geometry">
            <mxPoint x="880" y="640" as="sourcePoint" />
            <mxPoint x="880" y="320" as="targetPoint" />
          </mxGeometry>
        </mxCell>
        <mxCell id="vM847BDnY2Y7-K3CfBTw-17" value="" style="endArrow=none;html=1;" edge="1" parent="1">
          <mxGeometry width="50" height="50" relative="1" as="geometry">
            <mxPoint x="720" y="480" as="sourcePoint" />
            <mxPoint x="720" y="160" as="targetPoint" />
          </mxGeometry>
        </mxCell>
        <mxCell id="vM847BDnY2Y7-K3CfBTw-18" value="" style="endArrow=none;html=1;" edge="1" parent="1">
          <mxGeometry width="50" height="50" relative="1" as="geometry">
            <mxPoint x="1040" y="500" as="sourcePoint" />
            <mxPoint x="1040" y="160" as="targetPoint" />
          </mxGeometry>
        </mxCell>
        <mxCell id="vM847BDnY2Y7-K3CfBTw-20" value="" style="endArrow=none;html=1;" edge="1" parent="1">
          <mxGeometry width="50" height="50" relative="1" as="geometry">
            <mxPoint x="560" y="320" as="sourcePoint" />
            <mxPoint x="720" y="160" as="targetPoint" />
          </mxGeometry>
        </mxCell>
        <mxCell id="vM847BDnY2Y7-K3CfBTw-21" value="" style="endArrow=none;html=1;" edge="1" parent="1">
          <mxGeometry width="50" height="50" relative="1" as="geometry">
            <mxPoint x="880" y="320" as="sourcePoint" />
            <mxPoint x="1040" y="160" as="targetPoint" />
          </mxGeometry>
        </mxCell>
        <mxCell id="vM847BDnY2Y7-K3CfBTw-22" value="" style="endArrow=none;html=1;" edge="1" parent="1">
          <mxGeometry width="50" height="50" relative="1" as="geometry">
            <mxPoint x="1040" y="160" as="sourcePoint" />
            <mxPoint x="720" y="160" as="targetPoint" />
          </mxGeometry>
        </mxCell>
        <mxCell id="vM847BDnY2Y7-K3CfBTw-23" value="" style="endArrow=none;html=1;" edge="1" parent="1">
          <mxGeometry width="50" height="50" relative="1" as="geometry">
            <mxPoint x="880" y="320" as="sourcePoint" />
            <mxPoint x="560" y="320" as="targetPoint" />
          </mxGeometry>
        </mxCell>
        <mxCell id="vM847BDnY2Y7-K3CfBTw-24" value="" style="ellipse;whiteSpace=wrap;html=1;aspect=fixed;fillColor=#EA4335;strokeColor=none;" vertex="1" parent="1">
          <mxGeometry x="750" y="430" width="20" height="20" as="geometry" />
        </mxCell>
        <mxCell id="vM847BDnY2Y7-K3CfBTw-27" value="" style="endArrow=none;dashed=1;html=1;fillColor=#f8cecc;strokeColor=#EA4335;strokeWidth=2;" edge="1" parent="1">
          <mxGeometry width="50" height="50" relative="1" as="geometry">
            <mxPoint x="640" y="560" as="sourcePoint" />
            <mxPoint x="760" y="560" as="targetPoint" />
          </mxGeometry>
        </mxCell>
        <mxCell id="vM847BDnY2Y7-K3CfBTw-28" value="" style="endArrow=none;dashed=1;html=1;fillColor=#f8cecc;strokeColor=#EA4335;strokeWidth=2;" edge="1" parent="1">
          <mxGeometry width="50" height="50" relative="1" as="geometry">
            <mxPoint x="759.5" y="560" as="sourcePoint" />
            <mxPoint x="759.5" y="450" as="targetPoint" />
          </mxGeometry>
        </mxCell>
        <mxCell id="vM847BDnY2Y7-K3CfBTw-29" value="" style="endArrow=none;dashed=1;html=1;strokeColor=#EA4335;strokeWidth=2;" edge="1" parent="1">
          <mxGeometry width="50" height="50" relative="1" as="geometry">
            <mxPoint x="680" y="640" as="sourcePoint" />
            <mxPoint x="760" y="560" as="targetPoint" />
          </mxGeometry>
        </mxCell>
        <mxCell id="vM847BDnY2Y7-K3CfBTw-30" value="&lt;font color=&quot;#ea4335&quot;&gt;(x,y,z)&lt;/font&gt;" style="text;html=1;strokeColor=none;fillColor=none;align=center;verticalAlign=middle;whiteSpace=wrap;rounded=0;" vertex="1" parent="1">
          <mxGeometry x="780" y="430" width="40" height="20" as="geometry" />
        </mxCell>
        <mxCell id="vM847BDnY2Y7-K3CfBTw-41" value="" style="rounded=0;whiteSpace=wrap;html=1;fillColor=#E6E6E6;" vertex="1" parent="1">
          <mxGeometry x="560" y="640" width="320" height="20" as="geometry" />
        </mxCell>
        <mxCell id="vM847BDnY2Y7-K3CfBTw-46" value="" style="endArrow=none;html=1;" edge="1" parent="1">
          <mxGeometry width="50" height="50" relative="1" as="geometry">
            <mxPoint x="880" y="660" as="sourcePoint" />
            <mxPoint x="1040" y="500" as="targetPoint" />
          </mxGeometry>
        </mxCell>
      </root>
    </mxGraphModel>
  </diagram>
  <diagram name="3DCubeConfiguration" id="qvFkaabtAtWG2TR0Nzbx">
    <mxGraphModel dx="1177" dy="650" grid="1" gridSize="10" guides="1" tooltips="1" connect="1" arrows="1" fold="1" page="1" pageScale="1" pageWidth="2400" pageHeight="2400" math="0" shadow="0">
      <root>
        <mxCell id="wTvtxUom0htXqcZkhXqR-0" />
        <mxCell id="wTvtxUom0htXqcZkhXqR-1" parent="wTvtxUom0htXqcZkhXqR-0" />
        <mxCell id="wTvtxUom0htXqcZkhXqR-41" value="" style="whiteSpace=wrap;html=1;aspect=fixed;fillColor=#FFFFFF;strokeColor=#EA4335;strokeWidth=3;" vertex="1" parent="wTvtxUom0htXqcZkhXqR-1">
          <mxGeometry x="760" y="400" width="40" height="40" as="geometry" />
        </mxCell>
        <mxCell id="wTvtxUom0htXqcZkhXqR-2" value="" style="verticalLabelPosition=bottom;verticalAlign=top;html=1;shape=mxgraph.basic.orthogonal_triangle;fillColor=#E6E6E6;rotation=45;strokeColor=none;" vertex="1" parent="wTvtxUom0htXqcZkhXqR-1">
          <mxGeometry x="1032" y="483.31" width="14.5" height="14" as="geometry" />
        </mxCell>
        <mxCell id="wTvtxUom0htXqcZkhXqR-3" value="" style="verticalLabelPosition=bottom;verticalAlign=top;html=1;shape=mxgraph.basic.orthogonal_triangle;fillColor=#E6E6E6;strokeColor=none;rotation=90;" vertex="1" parent="wTvtxUom0htXqcZkhXqR-1">
          <mxGeometry x="880" y="640" width="20" height="20" as="geometry" />
        </mxCell>
        <mxCell id="wTvtxUom0htXqcZkhXqR-4" value="" style="rounded=0;whiteSpace=wrap;html=1;fillColor=#E6E6E6;rotation=-45;strokeColor=none;" vertex="1" parent="wTvtxUom0htXqcZkhXqR-1">
          <mxGeometry x="847.23" y="565.61" width="219.91" height="14.16" as="geometry" />
        </mxCell>
        <mxCell id="wTvtxUom0htXqcZkhXqR-5" value="" style="verticalLabelPosition=bottom;verticalAlign=top;html=1;shape=mxgraph.basic.orthogonal_triangle;fillColor=#E6E6E6;rotation=-90;strokeColor=none;fontStyle=1" vertex="1" parent="wTvtxUom0htXqcZkhXqR-1">
          <mxGeometry x="560.5" y="480.5" width="159.5" height="159.5" as="geometry" />
        </mxCell>
        <mxCell id="wTvtxUom0htXqcZkhXqR-6" value="" style="rounded=0;whiteSpace=wrap;html=1;fillColor=#E6E6E6;strokeColor=none;fontStyle=1" vertex="1" parent="wTvtxUom0htXqcZkhXqR-1">
          <mxGeometry x="720" y="480" width="160" height="160" as="geometry" />
        </mxCell>
        <mxCell id="wTvtxUom0htXqcZkhXqR-7" value="" style="verticalLabelPosition=bottom;verticalAlign=top;html=1;shape=mxgraph.basic.orthogonal_triangle;fillColor=#E6E6E6;rotation=90;strokeColor=none;fontStyle=1" vertex="1" parent="wTvtxUom0htXqcZkhXqR-1">
          <mxGeometry x="880" y="480.5" width="159.5" height="159.5" as="geometry" />
        </mxCell>
        <mxCell id="wTvtxUom0htXqcZkhXqR-8" value="" style="endArrow=none;html=1;" edge="1" parent="wTvtxUom0htXqcZkhXqR-1">
          <mxGeometry width="50" height="50" relative="1" as="geometry">
            <mxPoint x="880" y="640" as="sourcePoint" />
            <mxPoint x="560" y="640" as="targetPoint" />
          </mxGeometry>
        </mxCell>
        <mxCell id="wTvtxUom0htXqcZkhXqR-9" value="" style="endArrow=none;html=1;" edge="1" parent="wTvtxUom0htXqcZkhXqR-1">
          <mxGeometry width="50" height="50" relative="1" as="geometry">
            <mxPoint x="1040" y="480" as="sourcePoint" />
            <mxPoint x="720" y="480" as="targetPoint" />
          </mxGeometry>
        </mxCell>
        <mxCell id="wTvtxUom0htXqcZkhXqR-10" value="" style="endArrow=none;html=1;" edge="1" parent="wTvtxUom0htXqcZkhXqR-1">
          <mxGeometry width="50" height="50" relative="1" as="geometry">
            <mxPoint x="560" y="640" as="sourcePoint" />
            <mxPoint x="720" y="480" as="targetPoint" />
          </mxGeometry>
        </mxCell>
        <mxCell id="wTvtxUom0htXqcZkhXqR-11" value="" style="endArrow=none;html=1;" edge="1" parent="wTvtxUom0htXqcZkhXqR-1">
          <mxGeometry width="50" height="50" relative="1" as="geometry">
            <mxPoint x="880" y="640" as="sourcePoint" />
            <mxPoint x="1040" y="480" as="targetPoint" />
          </mxGeometry>
        </mxCell>
        <mxCell id="wTvtxUom0htXqcZkhXqR-12" value="" style="endArrow=none;html=1;" edge="1" parent="wTvtxUom0htXqcZkhXqR-1">
          <mxGeometry width="50" height="50" relative="1" as="geometry">
            <mxPoint x="560" y="640" as="sourcePoint" />
            <mxPoint x="560" y="320" as="targetPoint" />
          </mxGeometry>
        </mxCell>
        <mxCell id="wTvtxUom0htXqcZkhXqR-13" value="" style="endArrow=none;html=1;" edge="1" parent="wTvtxUom0htXqcZkhXqR-1">
          <mxGeometry width="50" height="50" relative="1" as="geometry">
            <mxPoint x="880" y="640" as="sourcePoint" />
            <mxPoint x="880" y="320" as="targetPoint" />
          </mxGeometry>
        </mxCell>
        <mxCell id="wTvtxUom0htXqcZkhXqR-14" value="" style="endArrow=none;html=1;" edge="1" parent="wTvtxUom0htXqcZkhXqR-1">
          <mxGeometry width="50" height="50" relative="1" as="geometry">
            <mxPoint x="720" y="480" as="sourcePoint" />
            <mxPoint x="720" y="160" as="targetPoint" />
          </mxGeometry>
        </mxCell>
        <mxCell id="wTvtxUom0htXqcZkhXqR-15" value="" style="endArrow=none;html=1;" edge="1" parent="wTvtxUom0htXqcZkhXqR-1">
          <mxGeometry width="50" height="50" relative="1" as="geometry">
            <mxPoint x="1040" y="500" as="sourcePoint" />
            <mxPoint x="1040" y="160" as="targetPoint" />
          </mxGeometry>
        </mxCell>
        <mxCell id="wTvtxUom0htXqcZkhXqR-16" value="" style="endArrow=none;html=1;" edge="1" parent="wTvtxUom0htXqcZkhXqR-1">
          <mxGeometry width="50" height="50" relative="1" as="geometry">
            <mxPoint x="560" y="320" as="sourcePoint" />
            <mxPoint x="720" y="160" as="targetPoint" />
          </mxGeometry>
        </mxCell>
        <mxCell id="wTvtxUom0htXqcZkhXqR-17" value="" style="endArrow=none;html=1;" edge="1" parent="wTvtxUom0htXqcZkhXqR-1">
          <mxGeometry width="50" height="50" relative="1" as="geometry">
            <mxPoint x="880" y="320" as="sourcePoint" />
            <mxPoint x="1040" y="160" as="targetPoint" />
          </mxGeometry>
        </mxCell>
        <mxCell id="wTvtxUom0htXqcZkhXqR-18" value="" style="endArrow=none;html=1;" edge="1" parent="wTvtxUom0htXqcZkhXqR-1">
          <mxGeometry width="50" height="50" relative="1" as="geometry">
            <mxPoint x="1040" y="160" as="sourcePoint" />
            <mxPoint x="720" y="160" as="targetPoint" />
          </mxGeometry>
        </mxCell>
        <mxCell id="wTvtxUom0htXqcZkhXqR-19" value="" style="endArrow=none;html=1;" edge="1" parent="wTvtxUom0htXqcZkhXqR-1">
          <mxGeometry width="50" height="50" relative="1" as="geometry">
            <mxPoint x="880" y="320" as="sourcePoint" />
            <mxPoint x="560" y="320" as="targetPoint" />
          </mxGeometry>
        </mxCell>
        <mxCell id="wTvtxUom0htXqcZkhXqR-21" value="" style="endArrow=none;dashed=1;html=1;fillColor=#f8cecc;strokeColor=#EA4335;strokeWidth=2;" edge="1" parent="wTvtxUom0htXqcZkhXqR-1">
          <mxGeometry width="50" height="50" relative="1" as="geometry">
            <mxPoint x="640" y="560" as="sourcePoint" />
            <mxPoint x="760" y="560" as="targetPoint" />
          </mxGeometry>
        </mxCell>
        <mxCell id="wTvtxUom0htXqcZkhXqR-22" value="" style="endArrow=none;dashed=1;html=1;fillColor=#f8cecc;strokeColor=#EA4335;strokeWidth=2;" edge="1" parent="wTvtxUom0htXqcZkhXqR-1">
          <mxGeometry width="50" height="50" relative="1" as="geometry">
            <mxPoint x="759.5" y="560" as="sourcePoint" />
            <mxPoint x="760" y="440" as="targetPoint" />
          </mxGeometry>
        </mxCell>
        <mxCell id="wTvtxUom0htXqcZkhXqR-23" value="" style="endArrow=none;dashed=1;html=1;strokeColor=#EA4335;strokeWidth=2;" edge="1" parent="wTvtxUom0htXqcZkhXqR-1">
          <mxGeometry width="50" height="50" relative="1" as="geometry">
            <mxPoint x="680" y="640" as="sourcePoint" />
            <mxPoint x="760" y="560" as="targetPoint" />
          </mxGeometry>
        </mxCell>
        <mxCell id="wTvtxUom0htXqcZkhXqR-24" value="&lt;font color=&quot;#ea4335&quot;&gt;(x,y,z,&lt;br&gt;&lt;span style=&quot;font-family: sans-serif ; text-align: left ; background-color: rgb(255 , 255 , 255)&quot;&gt;&lt;font style=&quot;font-size: 12px&quot;&gt;α, β, γ&lt;/font&gt;&lt;/span&gt;)&lt;/font&gt;" style="text;html=1;strokeColor=none;fillColor=none;align=center;verticalAlign=middle;whiteSpace=wrap;rounded=0;" vertex="1" parent="wTvtxUom0htXqcZkhXqR-1">
          <mxGeometry x="764" y="450" width="50" height="20" as="geometry" />
        </mxCell>
        <mxCell id="wTvtxUom0htXqcZkhXqR-25" value="" style="rounded=0;whiteSpace=wrap;html=1;fillColor=#E6E6E6;" vertex="1" parent="wTvtxUom0htXqcZkhXqR-1">
          <mxGeometry x="560" y="640" width="320" height="20" as="geometry" />
        </mxCell>
        <mxCell id="wTvtxUom0htXqcZkhXqR-26" value="" style="endArrow=none;html=1;" edge="1" parent="wTvtxUom0htXqcZkhXqR-1">
          <mxGeometry width="50" height="50" relative="1" as="geometry">
            <mxPoint x="880" y="660" as="sourcePoint" />
            <mxPoint x="1040" y="500" as="targetPoint" />
          </mxGeometry>
        </mxCell>
        <mxCell id="wTvtxUom0htXqcZkhXqR-42" value="" style="whiteSpace=wrap;html=1;aspect=fixed;fillColor=none;strokeColor=#EA4335;strokeWidth=3;" vertex="1" parent="wTvtxUom0htXqcZkhXqR-1">
          <mxGeometry x="780" y="380" width="40" height="40" as="geometry" />
        </mxCell>
        <mxCell id="wTvtxUom0htXqcZkhXqR-43" value="" style="endArrow=none;html=1;strokeColor=#EA4335;entryX=0;entryY=0;entryDx=0;entryDy=0;exitX=0;exitY=0;exitDx=0;exitDy=0;strokeWidth=3;" edge="1" parent="wTvtxUom0htXqcZkhXqR-1" source="wTvtxUom0htXqcZkhXqR-41" target="wTvtxUom0htXqcZkhXqR-42">
          <mxGeometry width="50" height="50" relative="1" as="geometry">
            <mxPoint x="740" y="430" as="sourcePoint" />
            <mxPoint x="790" y="380" as="targetPoint" />
          </mxGeometry>
        </mxCell>
        <mxCell id="wTvtxUom0htXqcZkhXqR-44" value="" style="endArrow=none;html=1;strokeColor=#EA4335;entryX=1;entryY=0;entryDx=0;entryDy=0;exitX=1;exitY=0;exitDx=0;exitDy=0;strokeWidth=3;" edge="1" parent="wTvtxUom0htXqcZkhXqR-1" source="wTvtxUom0htXqcZkhXqR-41" target="wTvtxUom0htXqcZkhXqR-42">
          <mxGeometry width="50" height="50" relative="1" as="geometry">
            <mxPoint x="770" y="410.0000000000001" as="sourcePoint" />
            <mxPoint x="790" y="390.0000000000001" as="targetPoint" />
          </mxGeometry>
        </mxCell>
        <mxCell id="wTvtxUom0htXqcZkhXqR-45" value="" style="endArrow=none;html=1;strokeColor=#EA4335;entryX=1;entryY=1;entryDx=0;entryDy=0;exitX=1;exitY=1;exitDx=0;exitDy=0;strokeWidth=3;" edge="1" parent="wTvtxUom0htXqcZkhXqR-1" source="wTvtxUom0htXqcZkhXqR-41" target="wTvtxUom0htXqcZkhXqR-42">
          <mxGeometry width="50" height="50" relative="1" as="geometry">
            <mxPoint x="810" y="440.0000000000001" as="sourcePoint" />
            <mxPoint x="830" y="420.0000000000001" as="targetPoint" />
          </mxGeometry>
        </mxCell>
        <mxCell id="wTvtxUom0htXqcZkhXqR-46" value="" style="endArrow=none;html=1;strokeColor=#EA4335;entryX=0;entryY=1;entryDx=0;entryDy=0;exitX=0;exitY=1;exitDx=0;exitDy=0;strokeWidth=3;" edge="1" parent="wTvtxUom0htXqcZkhXqR-1" source="wTvtxUom0htXqcZkhXqR-41" target="wTvtxUom0htXqcZkhXqR-42">
          <mxGeometry width="50" height="50" relative="1" as="geometry">
            <mxPoint x="770" y="440.0000000000001" as="sourcePoint" />
            <mxPoint x="790" y="420.0000000000001" as="targetPoint" />
          </mxGeometry>
        </mxCell>
        <mxCell id="wTvtxUom0htXqcZkhXqR-47" value="" style="ellipse;whiteSpace=wrap;html=1;aspect=fixed;strokeColor=#EA4335;strokeWidth=3;fillColor=#EA4335;" vertex="1" parent="wTvtxUom0htXqcZkhXqR-1">
          <mxGeometry x="757" y="437" width="7" height="7" as="geometry" />
        </mxCell>
      </root>
    </mxGraphModel>
  </diagram>
</mxfile>
